<?xml version="1.0" encoding="UTF-8"?>
<svg id="Calque_2" data-name="Calque 2" xmlns="http://www.w3.org/2000/svg" viewBox="0 0 463.49 232.15">
  <defs>
    <style>
      .cls-1 {
        fill: #fff;
      }
    </style>
  </defs>
  <g id="Calque_2-2" data-name="Calque 2">
    <g>
      <path class="cls-1" d="m227.72,112.47v119.68h-37.68v-119.68c0-40.99-32.75-74.23-73.15-74.23S43.74,71.48,43.74,112.47v119.68H6.06v-119.68c0-1.7.04-3.39.12-5.07C8.79,47.63,57.35,0,116.89,0s108.1,47.63,110.71,107.39c.08,1.68.12,3.37.12,5.07Z"/>
      <path class="cls-1" d="m396.5,26.02c-14.57-16-35.43-26.02-58.6-26.02-44.07,0-79.8,36.25-79.8,80.98,0,1.87.06,3.72.19,5.56h-.19v145.62h36.17v-83.36c12.54,8.32,27.52,13.16,43.62,13.16,13.92,0,27.01-3.62,38.4-9.99,10.97-6.11,20.37-14.78,27.42-25.21,8.82-13.02,13.97-28.79,13.97-45.78,0-21.22-8.03-40.52-21.2-54.96Zm-27.88,93.39c-2.43,2-5.04,3.77-7.83,5.27-6.83,3.69-14.61,5.78-22.88,5.78-19.09,0-35.62-11.14-43.62-27.36-2.52-5.08-4.18-10.67-4.84-16.56-.2-1.83-.3-3.68-.3-5.56,0-27.33,21.84-49.49,48.76-49.49s48.76,22.15,48.76,49.49c0,15.51-7.04,29.37-18.05,38.44Z"/>
      <path class="cls-1" d="m407.14,132.76c-.72,1.03-1.47,2.03-2.26,3.02.68-1.11,1.39-2.2,2.14-3.25l.12.22Z"/>
      <path class="cls-1" d="m227.72,107.39v5.07c0-1.7-.04-3.39-.12-5.07h.12Z"/>
      <path class="cls-1" d="m.12,107.39c-.08,1.68-.12,3.37-.12,5.07v-5.07h.12Z"/>
      <path class="cls-1" d="m185.57,155.83v2.11h-107.85c-8.31,0-15.82-3.48-21.18-9.09,0,0,0,0-.02-.02-5.15-5.39-8.33-12.74-8.33-20.85v-1.87h108.08c13.5,0,24.87,9.27,28.27,21.87h0c.67,2.5,1.03,5.13,1.03,7.85Z"/>
      <path class="cls-1" d="m463.49,231.8c-1.96.19-3.94.29-5.94.29-21.38,0-40.23-10.97-51.4-27.66,0,0,0-.03-.02-.04l-4.44-7.8-22.38-39.33c9.93-5.27,18.63-12.61,25.53-21.45,0-.02.02-.03.03-.04.79-.99,1.54-2,2.26-3.02l56.35,99.04Z"/>
      <path class="cls-1" d="m407.14,132.76c-.72,1.03-1.47,2.03-2.26,3.02.68-1.11,1.39-2.2,2.14-3.25l.12.22Z"/>
      <path class="cls-1" d="m406.14,204.4c-1.66-2.48-3.15-5.08-4.44-7.8l4.44,7.8Z"/>
      <path class="cls-1" d="m407.14,132.76c-.72,1.03-1.47,2.03-2.26,3.02.68-1.11,1.39-2.2,2.14-3.25l.12.22Z"/>
    </g>
  </g>
</svg>